<svg xmlns="http://www.w3.org/2000/svg" xmlns:xlink="http://www.w3.org/1999/xlink" viewBox="0 0 191.72 138.4"><defs><style>.cls-1{fill:none;}.cls-2{clip-path:url(#clip-path);}.cls-3{clip-path:url(#clip-path-2);}.cls-4{fill:#0b66a0;opacity:0.4;}.cls-5{fill:#1d5888;}.cls-6{fill:#ff993b;}.cls-7{fill:#fff;}</style><clipPath id="clip-path" transform="translate(-97.73 -110.28)"><polyline class="cls-1" points="297.54 137.12 232.51 286.21 68.92 214.86 133.94 65.77 297.54 137.12"/></clipPath><clipPath id="clip-path-2" transform="translate(-97.73 -110.28)"><polyline class="cls-1" points="113.88 109.97 257.76 120.03 251.38 242.06 107.5 232 113.88 109.97"/></clipPath></defs><g id="Layer_2" data-name="Layer 2"><g class="cls-2"><g class="cls-3"><g class="cls-3"><path class="cls-4" d="M142.45,160.82a2.87,2.87,0,0,1-.31-.29l.1-.21a1.59,1.59,0,0,1,.38.07l-.17.43m.57-3a1.23,1.23,0,0,0-.42.07,5.56,5.56,0,0,0-1.72,1.06,4.93,4.93,0,0,0-1.36,1.53,1.52,1.52,0,0,0,0,1.27c.46,1,1.72,1.07,2.74,1.28a1,1,0,0,0,.33.06l.19,0a3.56,3.56,0,0,0,1.27-.76l.15-.3a4.59,4.59,0,0,0,.33-1.15c-.1-.7-.15-1.39-.3-2.07a1.19,1.19,0,0,0-.22-.47,1.22,1.22,0,0,0-.4-.35,1.5,1.5,0,0,0-.51-.15H143" transform="translate(-97.73 -110.28)"/><path class="cls-4" d="M117.67,114.84c-.65-.67-.86-1-.53-1.79a10.36,10.36,0,0,1,.85-1.42,2.39,2.39,0,0,1,1.16.89,2.28,2.28,0,0,1,.43,1.38l-1.91.94m.48-4.56h0a1.52,1.52,0,0,0-.42.06,1.49,1.49,0,0,0-.39.17,1.51,1.51,0,0,0-.58.58,3.9,3.9,0,0,0-.42.74,3.44,3.44,0,0,0-.25,1.94c.22,1.9.43,3.15,2.3,3.15a7,7,0,0,0,1.54-.2c.15-.27.28-.53.4-.78a4.31,4.31,0,0,0-.73-4.9,2.08,2.08,0,0,0-.27-.32,1.56,1.56,0,0,0-.35-.24,1.63,1.63,0,0,0-.4-.15,1.74,1.74,0,0,0-.39,0" transform="translate(-97.73 -110.28)"/><path class="cls-4" d="M143.83,182.49c-.83-.19-1-.58-.9-1.18a2,2,0,0,1,.14-.43,1.11,1.11,0,0,1,1-.74.88.88,0,0,1,.65.57,1.79,1.79,0,0,1-.15.92l0,.1a1.87,1.87,0,0,1-.69.76m.24-3.92-.22,0a1.58,1.58,0,0,0-.43.1,1.36,1.36,0,0,0-.4.2,3.29,3.29,0,0,0-1.17,1.42l0,.05a3.45,3.45,0,0,0-.22,1.88c.11,1.07.85,1.7,2.35,2.08a2.6,2.6,0,0,0,.65.09,1.49,1.49,0,0,0,1.45-.95,3.45,3.45,0,0,0,.24-1.13A17.49,17.49,0,0,0,146,180a3,3,0,0,0-.18-.41,1.93,1.93,0,0,0-.28-.36,1.6,1.6,0,0,0-.35-.28,1.53,1.53,0,0,0-.4-.21,2.16,2.16,0,0,0-.44-.1l-.24,0" transform="translate(-97.73 -110.28)"/><path class="cls-4" d="M125.34,130.5c-.57,0-.62-.52-.6-.93l0-.11a3.75,3.75,0,0,1,.36-.48l1,.82c-.35.32-.55.69-.76.7m0-3.29a1.51,1.51,0,0,0-.48.08,1.18,1.18,0,0,0-.49.3,2.8,2.8,0,0,0-.77.84l-.09.17c0,.14-.1.28-.16.42l0,.09a2.45,2.45,0,0,0-.08.39,2.87,2.87,0,0,0,.08,1.13,3,3,0,0,0,.52,1c.1.1.2.2.31.29a9.3,9.3,0,0,1,1.37-.49l0-.08a2.92,2.92,0,0,1,2.06-1.69,3.31,3.31,0,0,0-.2-.73,3,3,0,0,0-1-1.23,1.47,1.47,0,0,0-.46-.36,1.57,1.57,0,0,0-.56-.16h-.1" transform="translate(-97.73 -110.28)"/><path class="cls-4" d="M147.77,168.87a2.83,2.83,0,0,1,.21-1.56,2.76,2.76,0,0,1,.52-.8c-.21-.2-.41-.4-.6-.61l-.24.2a1.72,1.72,0,0,0-.37.55l0,0a1.8,1.8,0,0,0-.13.69,3.1,3.1,0,0,0,.29,1,3.2,3.2,0,0,0,.34.53" transform="translate(-97.73 -110.28)"/><path class="cls-4" d="M118.12,133.66c.1-1.55-.93-2.27-1.69-3.07a3.14,3.14,0,0,0-.61-.12c-1.19.12-1.9.44-2.14,1s-.06,1.23.51,2.18a4,4,0,0,0,1,.85l3-.84" transform="translate(-97.73 -110.28)"/><path class="cls-4" d="M159.26,193.22h0a.57.57,0,0,1-.31-.5.59.59,0,0,1,.5-.32,3.33,3.33,0,0,1,1,.31,6.11,6.11,0,0,1-1.14.51m-.32-2.59a1.75,1.75,0,0,0-.68.13,1.58,1.58,0,0,0-.8.79l0,0a1.54,1.54,0,0,0-.08,1.08,2.67,2.67,0,0,0,.23.87,2.89,2.89,0,0,0,.5.75,2.83,2.83,0,0,0,.72.57,2.87,2.87,0,0,0,.86.32l.25,0a1.26,1.26,0,0,0,1.17-.81,2.1,2.1,0,0,0,.16-.84,10.07,10.07,0,0,0-.55-1.85,1.79,1.79,0,0,0-.43-.56,2,2,0,0,0-1.31-.52h0" transform="translate(-97.73 -110.28)"/><path class="cls-4" d="M170.23,221.33a.48.48,0,0,1-.18,0,13.88,13.88,0,0,1-1.56-1.18c.16-.27.32-.53.52-.81,0-.06.14-.08.24-.15a1.8,1.8,0,0,1,1.07.35,1.83,1.83,0,0,1,.67.88.81.81,0,0,1,.08.55l-.12.14a1.59,1.59,0,0,1-.72.25m-1.11-3.21a4.19,4.19,0,0,0-.5,0,1,1,0,0,0-.65.58l0,.09a1,1,0,0,0,0,.76,1.08,1.08,0,0,0,.48.53,4.53,4.53,0,0,0-.09.74c0,1.52.72,2.34,1.83,2.34a3.32,3.32,0,0,0,1.26-.28,1.39,1.39,0,0,0,.71-.55l.13-.23a1.5,1.5,0,0,0,.11-.63,3.35,3.35,0,0,0,0-.71,2.78,2.78,0,0,0-.2-.68,3.25,3.25,0,0,0-.35-.63,3.43,3.43,0,0,0-.48-.53,3.14,3.14,0,0,0-.59-.42,3.19,3.19,0,0,0-.66-.28,3.42,3.42,0,0,0-.71-.13h-.22" transform="translate(-97.73 -110.28)"/><path class="cls-4" d="M117.88,159.79c0-.11.07-.21.11-.32s.09-.19.15-.29l0,0a3.17,3.17,0,0,0-.78-.58,1.71,1.71,0,0,0-.49-.14c-.17,0-.37,0-.49.13a2.13,2.13,0,0,0-.85.91l0,.11a2.24,2.24,0,0,0-.17,1.12,3.06,3.06,0,0,0,.1.51,15.08,15.08,0,0,1,2.51-1.41" transform="translate(-97.73 -110.28)"/><path class="cls-4" d="M132.15,148.52l0-.07a1.35,1.35,0,0,0,.08-.4,9,9,0,0,1-1.59.62,5.3,5.3,0,0,1,1.15.31h0a1.36,1.36,0,0,0,.32-.46" transform="translate(-97.73 -110.28)"/><path class="cls-4" d="M151.42,203.8l.08-.22a12.42,12.42,0,0,0-1-1.27.8.8,0,0,0-.71,0,1.39,1.39,0,0,0-.43.56,1.84,1.84,0,0,0-.09.25,1.54,1.54,0,0,0,.1,1,1.52,1.52,0,0,0,.43.28,1.59,1.59,0,0,0,.49.11,1.42,1.42,0,0,0,.5-.08,1.22,1.22,0,0,0,.43-.24,2.64,2.64,0,0,0,.2-.37" transform="translate(-97.73 -110.28)"/><path class="cls-4" d="M153.16,177.82c-.49-.46-.61-.82-.89-.83s-.55.3-.82.46c.16.19.3.52.5.53a5,5,0,0,0,1.21-.16" transform="translate(-97.73 -110.28)"/><path class="cls-4" d="M139,146.35c-.2-.21-.38-.59-.62-.62s-.52.25-1,.5c.4.35.63.71.88.69s.47-.36.7-.57" transform="translate(-97.73 -110.28)"/><path class="cls-4" d="M199.71,193.72a2.75,2.75,0,0,1-.36-.15v-.23a1.61,1.61,0,0,1,.38-.08l0,.46m-.08-3.11a1.26,1.26,0,0,0-.38.06,1.13,1.13,0,0,0-.45.26,5.54,5.54,0,0,0-1.17,1.63c-.13.26-.27.52-.39.79a1.89,1.89,0,0,0,.23,2.33,1.7,1.7,0,0,0,1.23.45,10,10,0,0,0,1.78-.29c.17,0,.39-.05.49-.16a3.36,3.36,0,0,0,.86-1.18h0a4.68,4.68,0,0,0-.14-1.53c-.36-.61-.68-1.24-1-1.82a1.45,1.45,0,0,0-.38-.36,1.54,1.54,0,0,0-.51-.17h-.14" transform="translate(-97.73 -110.28)"/><path class="cls-4" d="M209.14,213.38a.8.8,0,0,1-.88-.78,1.82,1.82,0,0,1,.07-1,1,1,0,0,1,.52-.51H209a.85.85,0,0,1,.64.29,2,2,0,0,1,.07,1.69c0,.1-.11.2-.17.3h0a2,2,0,0,1-.4,0m-.19-3.92h-.07a2.34,2.34,0,0,0-.45.07,2.09,2.09,0,0,0-.41.17,1.83,1.83,0,0,0-.36.26,1.81,1.81,0,0,0-.29.33,4.5,4.5,0,0,0-.23.43,3.45,3.45,0,0,0-.28,1.39,3.54,3.54,0,0,0,.53,1.84,2.21,2.21,0,0,0,2.11,1.11,6.63,6.63,0,0,0,.85-.07,1.69,1.69,0,0,0,1.45-.93,2.47,2.47,0,0,0-.08-1.8,18.11,18.11,0,0,0-1.24-2.08,1.93,1.93,0,0,0-.33-.31,1.9,1.9,0,0,0-.39-.23,1.66,1.66,0,0,0-.43-.14,1.64,1.64,0,0,0-.38,0" transform="translate(-97.73 -110.28)"/><path class="cls-4" d="M171.94,172c-.36,0-.56-.35-.68-.68s.11-.46.12-.7l1.21.39c-.12.29-.18.56-.26.75s-.09.17-.16.2a1,1,0,0,1-.23,0m-.57-3.2a1.68,1.68,0,0,0-.44.07,1.56,1.56,0,0,0-.5.29,1.5,1.5,0,0,0-.33.46c-.06.11-.12.22-.17.33a2.59,2.59,0,0,0-.2.75,2.54,2.54,0,0,0,.08,1.13,2.71,2.71,0,0,0,.52,1,3.06,3.06,0,0,0,.88.76,7.88,7.88,0,0,0,1.42.47,2.75,2.75,0,0,0,.77-.5,2.56,2.56,0,0,0,.55-.72l.08-.17a2.81,2.81,0,0,0,.2-.7,2.53,2.53,0,0,0,0-.91,3,3,0,0,0-2.12-2.11,1.4,1.4,0,0,0-.56-.17h-.14" transform="translate(-97.73 -110.28)"/><path class="cls-4" d="M198.5,217.53a.79.79,0,0,1-.61-.27.3.3,0,0,1,0-.32.53.53,0,0,1,.43-.32h0a2.38,2.38,0,0,1,.67.4l0,0c-.21.24-.34.5-.55.52h0m-.42-2.42a2.45,2.45,0,0,0-.81.13,2.38,2.38,0,0,0-1.17,1.23l0,.06a2.55,2.55,0,0,0-.18.87,2.39,2.39,0,0,0,.14.88,2.32,2.32,0,0,0,2.33,1.4,3.52,3.52,0,0,0,1-.13,2.14,2.14,0,0,0,1.2-1.06l0-.09a2.06,2.06,0,0,0,.17-.69,2.2,2.2,0,0,0-.1-.81,2.68,2.68,0,0,0-1.35-1.51,2.44,2.44,0,0,0-1-.27h-.21" transform="translate(-97.73 -110.28)"/><path class="cls-4" d="M208.33,232.73c-.59-.32-1-.54-1.43-.77a.73.73,0,0,1-.26-.2.71.71,0,0,1-.16-.28.65.65,0,0,1,0-.31l.06-.24,0-.06,0-.07a.94.94,0,0,1,.47-.49,1.06,1.06,0,0,1,.45-.11,1.12,1.12,0,0,1,.31.05,1.29,1.29,0,0,1,.75.83,5.38,5.38,0,0,1-.21,1.65m-.66-3.72h-.26a2.9,2.9,0,0,0-.57.12,2.5,2.5,0,0,0-.53.23,2.69,2.69,0,0,0-.47.34,2.6,2.6,0,0,0-.38.43,2,2,0,0,0-.27.47v0a1.49,1.49,0,0,0-.05,1,3.86,3.86,0,0,0,2.14,2.2,4.18,4.18,0,0,0,1.52.37,1.92,1.92,0,0,0,.67-.11,3.36,3.36,0,0,1,.28-1.11,2.59,2.59,0,0,1,.14-.29c0-.75-.09-1.48-.18-2.21a1.67,1.67,0,0,0-.59-1.08,3.65,3.65,0,0,0-.53-.25A3.75,3.75,0,0,0,208,229l-.33,0" transform="translate(-97.73 -110.28)"/><path class="cls-4" d="M173.72,189c-.17,0-.39-.13-.58-.15h0l.06-.17.06-.16.17-.22a.33.33,0,0,1,.15,0c.16,0,.37.08.62.1-.17.3-.22.58-.4.64h-.09m.3-2.26a2,2,0,0,0-.49.06,1.79,1.79,0,0,0-.52.19,3.53,3.53,0,0,0-1.43,1.46l-.12.24a1.85,1.85,0,0,0-.14,1,1.94,1.94,0,0,0,.57,1.15,13.86,13.86,0,0,0,1.6.12,3.43,3.43,0,0,0,1.71-.4,1.65,1.65,0,0,0,.78-.67l.1-.2a1.63,1.63,0,0,0,.13-.79,2.51,2.51,0,0,0-.07-.55,2.25,2.25,0,0,0-.22-.51,2,2,0,0,0-.34-.44,2.15,2.15,0,0,0-.44-.34,1.92,1.92,0,0,0-.51-.22,2.53,2.53,0,0,0-.55-.09H174" transform="translate(-97.73 -110.28)"/><path class="cls-4" d="M211.17,198.57a1.91,1.91,0,0,0,.13-.45,3.84,3.84,0,0,1-1.66-.24l-.13.11c-.41.14-.89.11-1.07-.37a.49.49,0,0,1,.05-.32l0-.09a3.72,3.72,0,0,1-1.05-1.53,1.76,1.76,0,0,0-.86.9l0,.07a1.58,1.58,0,0,0-.12.68,1.85,1.85,0,0,0,.14.69,3.51,3.51,0,0,0,.65.79,3.34,3.34,0,0,0,.88.55,3.43,3.43,0,0,0,1,.26,3.2,3.2,0,0,0,1-.07,1.93,1.93,0,0,0,.59-.38,2.06,2.06,0,0,0,.41-.57v0" transform="translate(-97.73 -110.28)"/><path class="cls-4" d="M166.82,177.65c-.51-1.48-1.74-1.75-2.75-2.21a2.61,2.61,0,0,0-.6.14,3.19,3.19,0,0,0-1.48,1.3c-.3.69.11,1.42,1.24,2.27a4.13,4.13,0,0,0,1.23.4l2.36-1.9" transform="translate(-97.73 -110.28)"/><path class="cls-4" d="M227.87,217.46h0a.57.57,0,0,1-.48-.34l.05-.21a.58.58,0,0,1,.28-.28,3.48,3.48,0,0,1,.79-.09h.22c-.59.63-.72.91-.86.91m-.57-2.38h0a1.82,1.82,0,0,0-.7.14,1.88,1.88,0,0,0-.58.38,1.72,1.72,0,0,0-.28.44,1.76,1.76,0,0,0-.14.61,1.69,1.69,0,0,0,.35,1.08,3,3,0,0,0,1.33,1.23,3,3,0,0,0,.88.25h.33a3,3,0,0,0,.59-.06,1.2,1.2,0,0,0,.88-.71,1.79,1.79,0,0,0-.06-1.41,12.12,12.12,0,0,0-1.28-1.49,2.14,2.14,0,0,0-.62-.36,2.17,2.17,0,0,0-.66-.11" transform="translate(-97.73 -110.28)"/><path class="cls-4" d="M248.75,239.5h0a13.37,13.37,0,0,1-1.86-.48c.05-.32.09-.65.11-1v0a1.67,1.67,0,0,1,.16-.21,1.74,1.74,0,0,1,.67-.13,2.28,2.28,0,0,1,.44.05,1.83,1.83,0,0,1,1,.57.8.8,0,0,1,.25.64h0c-.16.24-.49.54-.73.54m-.87-2.82-.31,0a3.25,3.25,0,0,0-.69.14,2.88,2.88,0,0,0-.64.3,1,1,0,0,0-.28.37,1.14,1.14,0,0,0,.22,1.2,1.09,1.09,0,0,0,.6.31,4.29,4.29,0,0,0,.2.7c.51,1.08,1.18,1.63,1.93,1.63a2.52,2.52,0,0,0,1.72-.88A1.23,1.23,0,0,0,251,240a1.12,1.12,0,0,0,.1-.31,1.44,1.44,0,0,0-.11-.89,3.11,3.11,0,0,0-.32-.63,2.64,2.64,0,0,0-.45-.55,3.07,3.07,0,0,0-.56-.45,3.19,3.19,0,0,0-1.33-.47,2.83,2.83,0,0,0-.41,0" transform="translate(-97.73 -110.28)"/><path class="cls-4" d="M176.48,203.33a3.27,3.27,0,0,1-.3-.35l.17-.18v.08a2.33,2.33,0,0,1,.28.26l-.14.19m-.65-2.21a1.88,1.88,0,0,0-.47,0,.74.74,0,0,0-.37.31v0a2.38,2.38,0,0,0-.23.41,2,2,0,0,0-.18.77,2.24,2.24,0,0,0,.29,1.23,2.73,2.73,0,0,0,1,1,2.8,2.8,0,0,0,1.35.38,1.46,1.46,0,0,0,1.32-.88l.09-.25a1.54,1.54,0,0,0,0-.64,3.18,3.18,0,0,0-.35-.9,3.39,3.39,0,0,0-.62-.74,3.09,3.09,0,0,0-1.76-.76h0" transform="translate(-97.73 -110.28)"/><path class="cls-4" d="M200.81,207.7a1.83,1.83,0,0,0,.15-.93,1.61,1.61,0,0,0-.39-.93,1.64,1.64,0,0,0-.82-.41,1.58,1.58,0,0,0-.89.08,1.68,1.68,0,0,0-.78.66l-.11.21a1.63,1.63,0,0,0-.13.76,1.56,1.56,0,0,0,.26,1,1.68,1.68,0,0,0,.78.66,2.23,2.23,0,0,0,.68.05,2,2,0,0,0,1.06-.79,1.63,1.63,0,0,0,.19-.34" transform="translate(-97.73 -110.28)"/><path class="cls-4" d="M185.36,186.72a1.35,1.35,0,0,0,.12-.62,1.46,1.46,0,0,0-.16-.62,1.25,1.25,0,0,0-.74-.51,1.19,1.19,0,0,0-.89.08,1.48,1.48,0,0,0-.5.3,1.38,1.38,0,0,0-.34.46v0a1.26,1.26,0,0,0-.12.55,1.55,1.55,0,0,0,.11.56,1.31,1.31,0,0,0,.27.38,1.1,1.1,0,0,0,.4.24,1.19,1.19,0,0,0,.45.08,1.15,1.15,0,0,0,.45-.11,1.49,1.49,0,0,0,.57-.3,1.37,1.37,0,0,0,.38-.51h0" transform="translate(-97.73 -110.28)"/><path class="cls-4" d="M190.3,211l.1-.24.08-.22,0-.07a1.55,1.55,0,0,0-1.76-1.17,1.23,1.23,0,0,0-.64.59l0,.08a1.22,1.22,0,0,0-.06.78,1.37,1.37,0,0,0,.31.48,1.54,1.54,0,0,0,.49.32,1.45,1.45,0,0,0,.58.1,1.36,1.36,0,0,0,.56-.14,1.3,1.3,0,0,0,.35-.51" transform="translate(-97.73 -110.28)"/><path class="cls-4" d="M224.81,230.72h0a2.44,2.44,0,0,0,0-.66,12.19,12.19,0,0,0-1.42-.78c-.15-.06-.51.12-.64.29l-.05.11a1.43,1.43,0,0,0-.1.84,1.47,1.47,0,0,0,.47.86,1.39,1.39,0,0,0,1.71-.65" transform="translate(-97.73 -110.28)"/><path class="cls-4" d="M186.43,218.89a11.42,11.42,0,0,0-1.64-.26c-.07,0-.16.12-.22.27a1.1,1.1,0,0,0-.09.3.93.93,0,0,0,.16.35.79.79,0,0,0,.29.25.93.93,0,0,0,.37.1.77.77,0,0,0,.37-.08c.26-.12.4-.45.76-.93" transform="translate(-97.73 -110.28)"/><path class="cls-4" d="M191.94,198.67a3.8,3.8,0,0,0-1.08-.4.63.63,0,0,0-.38,1,1.1,1.1,0,0,0,.88.29c.22-.05.32-.46.58-.86" transform="translate(-97.73 -110.28)"/><path class="cls-4" d="M216.23,205.46c-.63-.23-.94-.54-1.18-.42s-.38.49-.56.74c.22.11.41.36.66.31a6.08,6.08,0,0,0,1.08-.63" transform="translate(-97.73 -110.28)"/><path class="cls-4" d="M190.67,182.06l.09-.23.08-.22,0-.05c-.25-.13-.56-.43-.79-.35s-.37.43-.69.84c.51.16.82.41,1.05.3a.58.58,0,0,0,.23-.29" transform="translate(-97.73 -110.28)"/><path class="cls-4" d="M183.23,174.18a8.53,8.53,0,0,0-.86-.84,5.14,5.14,0,0,0-.43.61l0,.13c-.07.37.45.72.9.57a1,1,0,0,0,.43-.47" transform="translate(-97.73 -110.28)"/><path class="cls-4" d="M219.12,220.19a4.85,4.85,0,0,0-1.09-.49.63.63,0,0,0-.51.38v.23l.11.22.21.13.24,0a4.14,4.14,0,0,0,1.05-.49" transform="translate(-97.73 -110.28)"/></g></g></g><path class="cls-5" d="M149,157c6.35,6.58,14,10.7,22.55,13.8,10,3.61,20.15,3.41,30.6,4.23,2.19.18,4.35.4,6.53.67,5.08,7.55,18,14.47,24.43,13.08,2.37-.52-2.67-4.61-3-5.14a14.37,14.37,0,0,1-1.67-4.36c2.89.66,5.76,1.35,8.67,2.09,6.66,1.67,14.79,3.52,17.25,10.86s-3.92,13.53-11.21,13.05c-8.24-.53-17.26-9-24.17-13.08-2.93-1.74-14.85-14.42-15.63-6.74-.79,7.45,8.09,15.61,12.92,19.66,4.09,3.41,13,8.12,13.86,13.29s-.51,11.75-.74,17c-.13,2.93-1.61,8.9-.26,11.7,3.33,6.84,11.81-9.94,12.88-12.35,1.59-3.5,2.57-10.31,5.28-12.82a11.2,11.2,0,0,1,3.31-1.35,16.48,16.48,0,0,0,2,1.24c3.14,1.44,2.88.09,3.13-3.09,7.73-2.48,15.65-3.84,22-9.09,2.22.72,4.09,1.28,4.92,1.53,5.12,1.58,3.53-1.77,1.66-5.35-.33-.61-.71-1.3-1.12-2,9.2-12.38,7.79-27.92-1.82-40.79-8.57-11.49-23-23.81-37.21-27.58,2.93-4.31,10.92-13.07,10.18-19s-8.19-2.49-11.61-1.14c-6.55,2.55-12.94,5.52-19.27,8.5-4.88,2.3-10,5.7-15.14,7.25-7.59,2.32-18.33.3-26.28.23-13.27-.12-26.48.49-39.56,3.34S144.38,152.17,149,157Z" transform="translate(-97.73 -110.28)"/><path class="cls-6" d="M236.79,232.85c1.07-3.36,2.12-6.68,3.2-10,.41-1.26.73-4.26,1.66-5.23.47-.48,2.37-.69,3-.86.21-.07.4-.11.62-.19.81.71,1.85,1.52,2.89,2.27-4.06,1.83-4,3.33-5.9,8.36-.15-.31-.3-.59-.45-.9-.17.15-.48.33-.47.47,0,.67,0,1.31.09,2.53.28-.66.54-1.35.79-2A67.47,67.47,0,0,1,233.34,244c.15-.63.26-1.17.35-1.45C234.73,239.29,235.75,236.09,236.79,232.85Zm-70.7-97.27c0-.2,0-.3.1-.34l.21-.19a2.72,2.72,0,0,1,.48-.33,3.78,3.78,0,0,1,1.06-.49,5.42,5.42,0,0,1,2.32-.25,6.69,6.69,0,0,1,2.19.7c.35.15.67.34,1,.52.17.11.33.22.47.33l.21.19a.31.31,0,0,1,.1.32.4.4,0,0,1-.34,0l-.25-.11-.48-.24a6.42,6.42,0,0,0-1-.42A11.32,11.32,0,0,0,171,135a2,2,0,0,1,.54.92c.22,1-.65,1.86-2,1.89a2.67,2.67,0,0,1-2.76-1.75,1.89,1.89,0,0,1,0-.58l-.13.06-.24.11A.44.44,0,0,1,166.09,135.58Zm26.47,3.95a6.24,6.24,0,0,1,.93-.47c.11,0,.29.26.44.43l-.8.54A6.52,6.52,0,0,0,192.56,139.53Zm11.9-3.08c.45-.16.7-.33.88-.28s.3.33.45.5c-.17.1-.38.32-.56.3S204.83,136.71,204.46,136.45Zm1.51-.53a4.71,4.71,0,0,1,1.3-.37c.17,0,.31.39.47.61a5.7,5.7,0,0,1-.89.63S206.63,136.55,206,135.92Zm1.16-1.14,5.57-.82A31.79,31.79,0,0,0,223,130.59c4.75-2.49,11.75-6.11,15.07-7.41,5.31-2.07,6.17-2.43,6.17-2.43l-6.83,4.64s1.43.23.31,2.08a13.24,13.24,0,0,1-2.57,3,12.61,12.61,0,0,0-4.66.41,17.83,17.83,0,0,0-4.12,2.27s3.9-1.16,5.05-1.53,3.84.29,3.84.29l2.4-2.91a3,3,0,0,1-.39,2.41,7.11,7.11,0,0,1-1.6,1.84s2.25-1.07,2.32-.62c.14.89-2.25,3.44-2.25,3.44Zm72.14,56.05c.18-.09.39-.31.56-.29s.4.26.78.52c-.46.16-.71.32-.89.28S279.39,191,279.27,190.83Zm3.73-.75.09-.34c.07-.24.11-.45.17-.69s.1-.45.16-.7l.14-.69c.17-.92.28-1.84.37-2.77a23.82,23.82,0,0,0,.1-2.8l-.07-.71-.09-.69a5.36,5.36,0,0,1-.09-.7l0-.36a.49.49,0,0,1,.11-.4.39.39,0,0,1,.27.32l.1.35c.06.24.13.46.18.7l.13.72.1.72a15.89,15.89,0,0,1,.15,2.92,13.32,13.32,0,0,1-.48,2.89l-.2.7a4.38,4.38,0,0,1-.25.69l-.28.66-.16.32a.47.47,0,0,1-.35.25A.47.47,0,0,1,283,190.08Zm.3-12.91v.14c0,.06,0,.1-.17.18s-.2,0-.21-.07l-.05-.1-.13-.17a2.26,2.26,0,0,0-.25-.38,7,7,0,0,1-.68-.74,3.09,3.09,0,0,1-.43-.94,2.62,2.62,0,0,1-.13-.48l0-.25v-.15c0-.05,0-.09.19-.18s.23,0,.24.06l.08.1.13.2c.08.12.15.28.23.41s.34.52.48.78l.45.85a2.88,2.88,0,0,1,.24.46ZM145.55,136.53c.69.13,1.31.23,1.77.27,6.31.57,12.58,1.13,18.9,1.73a150.9,150.9,0,0,1,27.49,5.07c.13-.83.23-1.71.3-2.56.11-1.19.16-2.44.16-3.61v-.06a.68.68,0,0,1,.3-.58.72.72,0,0,1,1,.15,6.64,6.64,0,0,1,.43.65,5.89,5.89,0,0,1,.37.64,7.54,7.54,0,0,1,.6,1.33c.13.34.27.71.38,1.06l0,.08h0c.14.55.26,1.09.35,1.65a10.69,10.69,0,0,1,.1,2.53l1.41.46c.14-.83.24-1.66.32-2.5.11-1.2.15-2.44.15-3.62v-.05a.71.71,0,0,1,.3-.59.73.73,0,0,1,1,.15c.16.22.29.42.43.65a5.79,5.79,0,0,1,.36.64,8.82,8.82,0,0,1,.61,1.33,12.38,12.38,0,0,1,.75,2.79,11.92,11.92,0,0,1,.1,2.67l.49.18a9.12,9.12,0,0,1,1.33.6c.06-.41.1-.85.13-1.26.11-1.2.16-2.44.16-3.62v-.05a.7.7,0,0,1,.3-.59.74.74,0,0,1,1,.15c.16.22.29.43.43.65a7,7,0,0,1,.37.64,8.25,8.25,0,0,1,.6,1.33,12.53,12.53,0,0,1,.75,2.79,14,14,0,0,1,.14,2,12.91,12.91,0,0,0,2.88,1c2.4.39,6.07-1.56,8.71-1.93,7.23-1.09,14.67-.42,21.92.27,3.21.3,6.45.69,9.66,1.13.89.13,3.07,0,3.82.58,2.5,1.74-2.74,3.46-4.08,4.15-2.82,1.48-5.62,3-8.45,4.4a3.42,3.42,0,0,1,.36.2l.39.23.1.07c1.4.67,2.79,1.37,4.2,2.06a4.12,4.12,0,0,1,1-.68,5.25,5.25,0,0,1,2.44-.51,7.36,7.36,0,0,1,2.43.39,4.07,4.07,0,0,1,1.17.52,3.09,3.09,0,0,1,1,.93c.25.38.39.75.59,1a.94.94,0,0,0,.71.48,9.09,9.09,0,0,1,1.18.2,4.07,4.07,0,0,1,1.16.58,8.15,8.15,0,0,1,1.65,1.79c.24.32.48.61.71.9s.27.29.38.44a1,1,0,0,1,.34.5.9.9,0,0,1-.62-.21,3.64,3.64,0,0,1-.46-.42,8.13,8.13,0,0,1-.79-.89c-.27-.31-.48-.61-.74-.9a4.78,4.78,0,0,0-.85-.73,3,3,0,0,0-.95-.42c-.33-.07-.7-.05-1.14-.13a1.38,1.38,0,0,1-.69-.25,1.88,1.88,0,0,1-.54-.51c-.25-.38-.42-.74-.62-1a2.69,2.69,0,0,0-.75-.67,5.46,5.46,0,0,0-1-.45,7.25,7.25,0,0,0-2.21-.4,5.32,5.32,0,0,0-2.19.33,7.76,7.76,0,0,0-.77.37c8.54,4.39,17.05,9.73,23.2,16.93a22.12,22.12,0,0,1,5.52,12.21,3.61,3.61,0,0,1,.43-.29c.05,0,.28.25.91.89a6.52,6.52,0,0,1-1.3.37,17.06,17.06,0,0,1-.45,4.62,23.28,23.28,0,0,1,4.32,4.71c.2-.5.62-1.08.52-1.55,0-.16.71-.52,1.53-1,6.23-12.11,2.3-27.27-7.8-38.54-9.15-10.22-22.22-20.67-36.1-23,2.1-2.86,4.12-5.8,6.05-8.77,1.22-1.9,7.36-9.71,6-12.2-1.91-3.51-24.95,8.79-27.94,10.19-5.74,2.68-11.95,7.27-18.32,7.63-9.67.53-19.55-.16-29.25-.28.18.56.35,1.07.39,1.14.24.15-.2,0-.44-.33-.12-.17,0-.54,0-.83h-.6A141.84,141.84,0,0,0,145.55,136.53Zm116.27,75c0-.14.33-.44.48-.42s.49.27.95.57c-.49.25-.75.48-1,.45A.71.71,0,0,1,261.82,211.49Zm-5.5,1.57c-.08,1.08-.18,2.19-.29,3.13,6-1.62,12.26-3,17.24-6.25.62-.42,1.25-.84,1.81-1.28-1.73-.6-3.53-1.21-5.12-1.81-.29.21-.62.42-.94.64a34.33,34.33,0,0,1-4.74,2.55c-.2.13-.36.22-.53.34l0-.07C261.33,211.37,258.83,212.23,256.32,213.06Zm25.82-11.79c-.08.14-.17.24-.26.38A2.81,2.81,0,0,0,282.14,201.27Z" transform="translate(-97.73 -110.28)"/><path class="cls-7" d="M168.66,136.08a1,1,0,0,1-1-.64.48.48,0,0,1,.07-.36,2.11,2.11,0,0,1,.43-.12,3.76,3.76,0,0,1,.78-.11.79.79,0,0,1,.49.55C169.47,135.73,169.14,136.06,168.66,136.08Zm-8.85,21.24a2,2,0,0,0-.55,2s-2.06-1.56-2-2.34S159.81,157.32,159.81,157.32Zm2.3-2.19a4.54,4.54,0,0,0-1.71,1.49s-1.43-1.32-.93-1.92S162.11,155.13,162.11,155.13Zm.86-.5s-.9-1.38-.38-1.75,3.12.78,3.12.78Zm6.71-2.06s-.49-1.07.48-1.2a5.87,5.87,0,0,1,2.53.71s-.17-1.17.49-1a6.79,6.79,0,0,1,1.66.78A47.28,47.28,0,0,0,169.68,152.57Zm-2.34.59s-1.23-1.22-.23-1.21a9.62,9.62,0,0,1,2.57.62A15.63,15.63,0,0,0,167.34,153.16Zm8.81-2.78a8.33,8.33,0,0,1,2.29.88l-2.37.29S175.46,150.36,176.15,150.38Zm-21.45,4.13,1.12,1.71L154,156C153.87,155.44,154.7,154.51,154.7,154.51Zm.74-.94a3.3,3.3,0,0,1,1.75-.92l.6,1.73S154.8,154.29,155.44,153.57Zm5.32-2.64s.14,1.4-.45,1.58-2.2-.49-2.2-.49A18.82,18.82,0,0,1,160.76,150.93Zm1.32-.41a24.79,24.79,0,0,1,2.81-.61s.13,1.38-.51,1.46S162.08,150.52,162.08,150.52Zm6.91-1.1s-.08,1.45-.49,1.54-2.39-1.26-2.39-1.26A9.17,9.17,0,0,1,169,149.42Zm2.95,1.19-1.33-1.4a5.73,5.73,0,0,1,2.49,0l-.69,1.3A.3.3,0,0,1,171.94,150.61Zm-19-8.84c0-.28-.18-.68,0-.83a4.56,4.56,0,0,1,1.06-.54,5.2,5.2,0,0,1,.87.58c.07.07-.15.5-.33.62s-.37-.15-.59-.24-.27-.18-.32-.16C153.36,141.39,153.15,141.6,152.93,141.77Zm103.71,35.85c.45-.3.92-.8,1.4-.82s.82.51,1.73,1.14a19.89,19.89,0,0,1-2.43.27C257.11,178.18,256.89,177.82,256.64,177.62ZM143.36,146.46a81.15,81.15,0,0,0,9.53,10.91c-2.61-5.42,7.75-8.31,15.47-9,9.37-.86,13.58,3.12,13.58,3.12s-15.84,1.88-19.83,4.72-.4,7.74-.4,7.74l-.16-.08c8.27,4.74,18.49,7.27,27.6,7.81,5.39.34,10.75.75,16,1.31h0c-.46-.39-.89-.78-1.29-1.15.16-.09.4-.29.5-.23,1,.5,2,1.06,3,1.6l.07,0,2.53.31c.46,0,.91.12,1.38.18,4.33.58,8.63,1.25,12.93,2.06l1.25.24c.78.15,1.53.3,2.31.48q6.91,1.41,13.81,3.38c6,1.71,11.93,4.14,14.64,10.14,3.12,7,0,13.78-6.95,16.59-9.21,3.73-17.17-3.66-24.59-8.17-6.86-4.18-13.13-7.83-18.86-13.55,1.37,9.07,8,14.85,14.66,20.42,2.17,1.8,6,4.17,8.85,6.73a1.45,1.45,0,0,1,0-.35c0-.21.11-.42.17-.64a1.07,1.07,0,0,0,0-.32l.05-.16,0-.09s.05,0,.21-.08.18.05.19.08l0,.07,0,.17a1,1,0,0,0,0,.34,2.72,2.72,0,0,1,0,.7,1.78,1.78,0,0,1-.16.67l-.08.19c.29.28.55.54.78.8a4.34,4.34,0,0,1,.06-.61c0-.35.13-.72.15-1.06a5,5,0,0,0,0-.55V211l0-.14c0-.07,0-.1.19-.16s.22.07.22.09l.06.13.06.28.07.58a5.07,5.07,0,0,1,.08,1.16,3.68,3.68,0,0,1-.24,1.14l0,.12c.2.28.41.55.58.82.05-.41.1-.85.15-1.26a9,9,0,0,0,.08-1.88l-.05-.48-.07-.47a2.42,2.42,0,0,1-.07-.47l-.05-.22a.27.27,0,0,1,.11-.28.3.3,0,0,1,.27.17l.1.23a3.06,3.06,0,0,1,.17.48l.21,1a9,9,0,0,1,.15,2,9.34,9.34,0,0,1-.34,2c0,.09,0,.18-.09.27a2.54,2.54,0,0,1,.17.51c1.26,4.34-.52,11.81-.71,16.32-.12,3.13-.27,6.25-.39,9.38.49-1.57,1-2.95,1.13-3.23,1.58-5,3.18-9.95,4.77-14.91.64-2,1.06-6,2.45-7.65.79-1,2.14-1.06,3.31-1.38.16,0,.32-.09.48-.13a.51.51,0,0,1-.1-.49c.12-.23.56-.18,1.15,0l.19.08a12.44,12.44,0,0,1,1.28.63l1.15.67c.92.57,1.92,1.22,2.83,1.85l.06-.27c.07-.3.18-.61.28-.92.05-.16.05-.3.1-.48a.82.82,0,0,1,.06-.25l0-.12s.07-.07.21-.1.19.1.2.13l0,.14,0,.25a2.69,2.69,0,0,1,0,.49,5.9,5.9,0,0,1-.07,1v0a2,2,0,0,1-.16.58l.24.18a4.76,4.76,0,0,1,.57.39l0-.24c0-.12,0-.21,0-.33,0-.29,0-.58.09-.88l0-.14c.07-.45.15-.9.19-1.36,0-.24,0-.47,0-.7a1.45,1.45,0,0,1,0-.35l0-.18c0-.06,0-.12.18-.18s.2.1.21.16l0,.16a3.13,3.13,0,0,1,0,.36c0,.23,0,.49,0,.71a9.94,9.94,0,0,1,0,1.22v.21a3.57,3.57,0,0,1-.1.71,4.64,4.64,0,0,1-.17.69,4.81,4.81,0,0,1-.14.52,4.83,4.83,0,0,1,.51.38c.31.22.54.37.67.45,0-.15,0-.4.07-.73s.07-1,.13-1.63c0-.29,0-.61.08-.94.08-1,.19-2,.31-3.05.06-.38.09-.76.16-1.12s.13-.71.2-1A11.76,11.76,0,0,1,255,210c.22-.59.48-1,.76-1s.6.75.64,1.86a48.43,48.43,0,0,0,11.42-5c-1.83-.77-3-1.43-2.92-1.82.05-.16.36-.2.88-.17a24.78,24.78,0,0,1,3.69.8c.37.09.76.21,1.16.32s.73.22,1.1.34c1.72.51,3.53,1.09,5.26,1.66l.18,0-.08-.13a3,3,0,0,1-.41-.94,3.25,3.25,0,0,1,0-.89,1.38,1.38,0,0,0,0-.68,1.27,1.27,0,0,0-.32-.59.94.94,0,0,0-.26-.23l-.17-.16-.07-.16.11-.17.15,0,.05,0,.16.08a1.33,1.33,0,0,1,.38.27,2.35,2.35,0,0,1,.5.75,2.66,2.66,0,0,1,.2.9,2.75,2.75,0,0,0,.07.7,1.73,1.73,0,0,0,.2.53,4,4,0,0,0,.39.63l.05.08.35.44,1.05.34,1.85.63a7.79,7.79,0,0,0-.52-.72,5.31,5.31,0,0,0-.65-.6l-.31-.25a5.07,5.07,0,0,1-.62-.47,1.28,1.28,0,0,1-.29-.39,2.6,2.6,0,0,1-.16-.34,1.4,1.4,0,0,1-.1-.35c-.11-.38-.16-.74-.23-1.07A5.1,5.1,0,0,0,278,203a5,5,0,0,0-.76-1.1l-.44-.47a1.84,1.84,0,0,0-.25-.23.51.51,0,0,1-.17-.37.41.41,0,0,1,.41,0l.3.19a3.49,3.49,0,0,1,.56.48,8.76,8.76,0,0,1,.88,1.15,6,6,0,0,1,.63,1.33c.07.18.12.4.19.59a6.2,6.2,0,0,0,.23.69,1.36,1.36,0,0,0,.3.45,2.61,2.61,0,0,0,.49.38,4.26,4.26,0,0,1,.38.32,5.28,5.28,0,0,1,.68.74,6.5,6.5,0,0,1,.73,1.28l.07.18c.74.24,1.33.46,1.67.58a24.7,24.7,0,0,0-1.95-4.13c-.31-.5-.62-1-.93-1.49l-.37-.52a30.3,30.3,0,0,0-3.49-4.08l-.57-.51c-.18-.16-.39-.32-.59-.47l-.87-.7a13,13,0,0,1-2.45-2.33c-.32-.54,0-.73,1.72-.21a9.86,9.86,0,0,1,1.33.55,9.18,9.18,0,0,0,.18-1.25c-.26-.14-.54-.25-.77-.4s-.54-.37-.81-.54l-.4-.29-.18-.16-.11-.09s0-.08,0-.26.17-.15.2-.13l.13,0,.24.06.47.19a3.5,3.5,0,0,1,.91.49,2.24,2.24,0,0,1,.38.31c0-.4,0-.8,0-1.2a3.36,3.36,0,0,1-.54-.26,3.67,3.67,0,0,1-.76-.46c-.13-.09-.26-.15-.39-.23l-.17-.14L274,191s-.05-.08,0-.25.16-.18.19-.16h.12l.24,0a3.49,3.49,0,0,1,.46.15,4.19,4.19,0,0,1,.86.39l.1.06a18.66,18.66,0,0,0-3.18-8.53c-6.36-9.51-17.73-15.83-27.95-20.86l-.26-.11-.5-.21-1-.44c-.67-.28-1.36-.56-2-.88s-1.31-.66-2-1c-.35-.15-.67-.28-1-.44l-.51-.23-.26-.12c-.09,0-.16-.1-.17-.27a.35.35,0,0,1,.32-.1l.27,0a2.9,2.9,0,0,1,.52.18l1.06.37c.43.13.86.3,1.3.43a.86.86,0,0,1,.16-.67c-1-.35-2-.68-3-1s-2.23-.81-3.37-1.16c-.56-.19-1.14-.35-1.71-.52-.28-.08-.58-.16-.86-.27l-.43-.13A.55.55,0,0,1,231,155a.66.66,0,0,1,.49-.11l.45.08c.3.05.57.13.87.18.57.13,1.15.29,1.73.46,1.15.29,2.3.58,3.47.93s2.23.8,3.33,1.25a11.32,11.32,0,0,1,1.49-.9c3.32-1.72,6.61-3.44,9.92-5.17a183.59,183.59,0,0,0-23.16-2H228.4c-.45.3-.91.8-1.4.82-.28,0-.6-.27-1.12-.7a81,81,0,0,0-12.28,2.36c-1.85.46-2.5-.17-4.25-1l-.56-.24a6.23,6.23,0,0,1-.76,1.94l-.17.09-.17-.08-.05-.13v0a9.91,9.91,0,0,1,.05-1.35c0-.32,0-.64,0-.93,0-.12,0-.26,0-.38l0-.69c0-.26,0-.51,0-.73a6.14,6.14,0,0,0-.16-1.14,10.38,10.38,0,0,0-.75-2.39c0,.34-.05.7-.08,1-.07.62-.13,1.26-.22,1.88a6,6,0,0,1-.15.78c-.07.33-.11.65-.18,1l0,.12a17.69,17.69,0,0,1-.51,1.86,12,12,0,0,1-.72,1.79,6.92,6.92,0,0,1-1.79,2.31,4.51,4.51,0,0,1-.82.55c.54-1.18,1-2.25,1.38-3.4a20.94,20.94,0,0,0,1-3.45l.09-.39c-.63-.26-1.28-.49-1.94-.75a5.83,5.83,0,0,1-.5,1l-.18.09-.16-.08-.06-.13v0a6.64,6.64,0,0,1,0-1.19l0-.17c0-.29,0-.58,0-.87a2.32,2.32,0,0,0,0-.46c0-.18,0-.38,0-.55a9.06,9.06,0,0,0-.21-2,10.38,10.38,0,0,0-.75-2.39c0,.35,0,.7-.08,1.05-.08,1-.22,1.91-.38,2.87-.05.29-.13.6-.18.89l0,0c-.07.33-.15.63-.24,1l-.25.83a16.37,16.37,0,0,1-.72,1.82,6.92,6.92,0,0,1-1.79,2.31,5.09,5.09,0,0,1-.82.55c.54-1.18,1-2.25,1.37-3.4a20.06,20.06,0,0,0,.78-2.6c-.46-.16-.93-.32-1.38-.45a6.06,6.06,0,0,1-.53,1.12l-.18.1-.16-.08-.06-.13v0a8,8,0,0,1,0-1.3v-.09l.05-.95v-.38c0-.2,0-.43,0-.63a11.84,11.84,0,0,0-.2-2,10.89,10.89,0,0,0-.75-2.39c0,.35-.05.7-.09,1.05a27.64,27.64,0,0,1-.38,2.86c-.05.3-.12.61-.2.91l0,0a7.66,7.66,0,0,1-.25,1l-.25.83a11.54,11.54,0,0,1-.72,1.79,6.92,6.92,0,0,1-1.79,2.31,4.54,4.54,0,0,1-.82.56c.54-1.18,1-2.25,1.38-3.4a23.65,23.65,0,0,0,.76-2.52c-16.47-4.67-33.57-5.64-50.56-7.19a15.22,15.22,0,0,1-2.13-.33C138,140,141.2,143.52,143.36,146.46ZM219.73,178c-.11.16-.19.18-.28.17h-.23l-.49,0c-.32,0-.65-.09-1-.13-.65-.09-1.26-.16-1.89-.31s-1.24-.3-1.88-.48l-.18,0c.3.33.57.68.87,1a1.53,1.53,0,0,1,.36,0,5.5,5.5,0,0,1,1,.24l.49.15.25.09.13.06s.07.07.08.24-.13.2-.16.18h-.4a3,3,0,0,1-.52,0l-.27,0c3.82,3.73,8.42,5.91,14.19,7.06a23.57,23.57,0,0,1-4.91-7.85q-6-1.27-11.93-2.21l.23.29c.3.05.57.1.86.13.65.09,1.29.15,1.91.24s1.26.27,1.9.42l.93.22.47.16.22.1C219.59,177.81,219.69,177.85,219.73,178Z" transform="translate(-97.73 -110.28)"/><path class="cls-5" d="M104,186.07v19.27h10.87a2.84,2.84,0,0,1,2,.64,2.06,2.06,0,0,1,.69,1.59,2,2,0,0,1-.68,1.58,3,3,0,0,1-2,.6h-13a2.81,2.81,0,0,1-3.29-3.29V186.07a3.52,3.52,0,0,1,.73-2.44,2.49,2.49,0,0,1,1.93-.82,2.56,2.56,0,0,1,2,.81A3.49,3.49,0,0,1,104,186.07Z" transform="translate(-97.73 -110.28)"/><path class="cls-5" d="M132.72,182.81a14.09,14.09,0,0,1,7.07,1.68,10.76,10.76,0,0,1,4.47,4.75,16.18,16.18,0,0,1,1.52,7.23,17.88,17.88,0,0,1-.83,5.59,12.18,12.18,0,0,1-2.5,4.35,10.83,10.83,0,0,1-4.08,2.82,14.74,14.74,0,0,1-5.55,1,14.58,14.58,0,0,1-5.56-1,11,11,0,0,1-4.1-2.83,12.12,12.12,0,0,1-2.49-4.39,18,18,0,0,1-.84-5.54,17.22,17.22,0,0,1,.88-5.6,12.06,12.06,0,0,1,2.54-4.34,11.13,11.13,0,0,1,4-2.74A14.59,14.59,0,0,1,132.72,182.81Zm7.62,13.63a12.35,12.35,0,0,0-.94-5,7.07,7.07,0,0,0-2.68-3.23,7.81,7.81,0,0,0-7-.49,6.43,6.43,0,0,0-2.34,1.77,8.33,8.33,0,0,0-1.56,3,13.32,13.32,0,0,0-.57,4,13.68,13.68,0,0,0,.57,4.08,8.4,8.4,0,0,0,1.61,3,6.68,6.68,0,0,0,2.38,1.79,7.12,7.12,0,0,0,9.49-3.61A12.29,12.29,0,0,0,140.34,196.44Z" transform="translate(-97.73 -110.28)"/><path class="cls-5" d="M167.75,206.75l-1.26-3.32H155.72l-1.26,3.4a12.31,12.31,0,0,1-1.27,2.68,2,2,0,0,1-1.71.69,2.49,2.49,0,0,1-1.79-.74,2.25,2.25,0,0,1-.78-1.68,3.79,3.79,0,0,1,.18-1.12c.12-.38.32-.92.6-1.61l6.77-17.19.7-1.78a8.68,8.68,0,0,1,.87-1.73,3.41,3.41,0,0,1,1.21-1.11,3.72,3.72,0,0,1,1.85-.43,3.8,3.8,0,0,1,1.87.43,3.64,3.64,0,0,1,1.21,1.09,7.65,7.65,0,0,1,.77,1.44c.22.51.48,1.19.81,2l6.92,17.09a8.63,8.63,0,0,1,.81,2.84,2.34,2.34,0,0,1-.77,1.69,2.52,2.52,0,0,1-1.85.76,2.39,2.39,0,0,1-1.08-.22,2.19,2.19,0,0,1-.76-.62,5.14,5.14,0,0,1-.66-1.19C168.12,207.64,167.92,207.16,167.75,206.75Zm-10.62-7.35H165l-4-10.93Z" transform="translate(-97.73 -110.28)"/><path class="cls-5" d="M186.26,186l10.32,15.61V185.89a3.46,3.46,0,0,1,.66-2.31,2.23,2.23,0,0,1,1.78-.77,2.3,2.3,0,0,1,1.82.77,3.41,3.41,0,0,1,.67,2.31v20.83c0,2.32-1,3.48-2.89,3.48a4,4,0,0,1-1.3-.2,3.35,3.35,0,0,1-1.09-.66,7,7,0,0,1-.94-1.06c-.29-.4-.57-.82-.86-1.24l-10.07-15.43v15.52a3.33,3.33,0,0,1-.7,2.3,2.35,2.35,0,0,1-1.81.77,2.3,2.3,0,0,1-1.82-.78,3.39,3.39,0,0,1-.69-2.29V186.7a5.81,5.81,0,0,1,.29-2,2.92,2.92,0,0,1,1.14-1.33,3.13,3.13,0,0,1,1.72-.52,2.87,2.87,0,0,1,1.23.24,3.08,3.08,0,0,1,.91.63,6.72,6.72,0,0,1,.79,1Z" transform="translate(-97.73 -110.28)"/><path class="cls-6" d="M118.21,232.27a7.58,7.58,0,0,1-1.2,4.2,8,8,0,0,1-3.53,2.92,13.23,13.23,0,0,1-5.5,1.06,12.38,12.38,0,0,1-6.29-1.45,8.39,8.39,0,0,1-2.86-2.76,6.33,6.33,0,0,1-1.1-3.37,2.27,2.27,0,0,1,2.34-2.3,2,2,0,0,1,1.4.52,4.27,4.27,0,0,1,1,1.57,10.51,10.51,0,0,0,1.07,2.05,4.2,4.2,0,0,0,1.61,1.37,6,6,0,0,0,2.72.53,6.15,6.15,0,0,0,3.77-1.08,3.24,3.24,0,0,0,1.45-2.7,2.85,2.85,0,0,0-.78-2.08,5.09,5.09,0,0,0-2-1.22c-.83-.28-1.93-.58-3.32-.9a24.15,24.15,0,0,1-4.65-1.52,7.63,7.63,0,0,1-3-2.37A6.18,6.18,0,0,1,98.23,221a6.41,6.41,0,0,1,1.16-3.78,7.37,7.37,0,0,1,3.35-2.54,13.82,13.82,0,0,1,5.17-.88,12.65,12.65,0,0,1,4.11.59,8.63,8.63,0,0,1,2.87,1.56,6.48,6.48,0,0,1,1.67,2.05,4.72,4.72,0,0,1,.53,2.09,2.48,2.48,0,0,1-.66,1.68,2.11,2.11,0,0,1-1.65.75,1.89,1.89,0,0,1-1.36-.45,6,6,0,0,1-1-1.47,6.72,6.72,0,0,0-1.69-2.28,5,5,0,0,0-3.16-.81,5.47,5.47,0,0,0-3.26.88,2.59,2.59,0,0,0-1.24,2.14,2.2,2.2,0,0,0,.42,1.34,3.61,3.61,0,0,0,1.16,1,7.47,7.47,0,0,0,1.5.63c.5.16,1.33.38,2.49.67a39.7,39.7,0,0,1,4,1.13,12,12,0,0,1,3,1.49,6.22,6.22,0,0,1,1.94,2.23A7.12,7.12,0,0,1,118.21,232.27Z" transform="translate(-97.73 -110.28)"/><path class="cls-6" d="M128.26,217v7.38h11.26V217a3.43,3.43,0,0,1,.72-2.37,2.38,2.38,0,0,1,1.87-.79,2.51,2.51,0,0,1,1.91.78,3.41,3.41,0,0,1,.73,2.38v20.3a3.39,3.39,0,0,1-.74,2.39,2.48,2.48,0,0,1-1.9.8,2.38,2.38,0,0,1-1.88-.8,3.53,3.53,0,0,1-.71-2.39V228.6H128.26v8.66a3.39,3.39,0,0,1-.74,2.39,2.48,2.48,0,0,1-1.9.8,2.4,2.4,0,0,1-1.88-.8,3.53,3.53,0,0,1-.7-2.39V217a3.53,3.53,0,0,1,.69-2.37,2.37,2.37,0,0,1,1.89-.79,2.49,2.49,0,0,1,1.91.78A3.41,3.41,0,0,1,128.26,217Z" transform="translate(-97.73 -110.28)"/><path class="cls-6" d="M167.2,237.09,166,233.85H155.49l-1.23,3.31a11.49,11.49,0,0,1-1.23,2.61,2,2,0,0,1-1.67.68,2.44,2.44,0,0,1-1.74-.73,2.2,2.2,0,0,1-.75-1.63A3.86,3.86,0,0,1,149,237c.12-.38.31-.9.58-1.56l6.6-16.74c.18-.48.41-1.06.67-1.73a9.35,9.35,0,0,1,.85-1.68,3.47,3.47,0,0,1,1.17-1.08,3.68,3.68,0,0,1,4.8,1.06,7.87,7.87,0,0,1,.76,1.4c.2.5.46,1.16.78,2L172,235.29a8.34,8.34,0,0,1,.79,2.76,2.32,2.32,0,0,1-.74,1.65,2.45,2.45,0,0,1-1.8.75,2.41,2.41,0,0,1-1.06-.22,2.28,2.28,0,0,1-.74-.6,5.52,5.52,0,0,1-.64-1.16C167.56,238,167.37,237.49,167.2,237.09Zm-10.33-7.16h7.69l-3.88-10.63Z" transform="translate(-97.73 -110.28)"/><path class="cls-6" d="M184,229h-1.83v8.28a3.44,3.44,0,0,1-.72,2.41,2.44,2.44,0,0,1-1.88.78,2.38,2.38,0,0,1-1.93-.81,3.58,3.58,0,0,1-.69-2.38V217.44a2.74,2.74,0,0,1,3.2-3.2h8.49a25.88,25.88,0,0,1,3,.15,7.74,7.74,0,0,1,2.25.6,6.62,6.62,0,0,1,2.14,1.46,6.5,6.5,0,0,1,1.42,2.21,7.38,7.38,0,0,1,.48,2.66,6.43,6.43,0,0,1-1.63,4.61,9.35,9.35,0,0,1-4.93,2.44,9.57,9.57,0,0,1,2.66,2.18,23.66,23.66,0,0,1,3.8,6,5.88,5.88,0,0,1,.56,1.8,1.81,1.81,0,0,1-.33,1,2.3,2.3,0,0,1-.89.8,2.83,2.83,0,0,1-1.3.29,2.48,2.48,0,0,1-1.47-.42,3.78,3.78,0,0,1-1-1c-.29-.43-.68-1.05-1.17-1.87l-2.09-3.48a19,19,0,0,0-2-2.92,5.08,5.08,0,0,0-1.8-1.37A6.29,6.29,0,0,0,184,229Zm3-10.82h-4.82v7.08h4.68a13.43,13.43,0,0,0,3.16-.32,3.72,3.72,0,0,0,2-1.11,3.2,3.2,0,0,0,.68-2.16,3.27,3.27,0,0,0-2.06-3.11A11.14,11.14,0,0,0,187,218.16Z" transform="translate(-97.73 -110.28)"/><path class="cls-6" d="M208.47,217v9l10.25-10.69a8.35,8.35,0,0,1,1.26-1.14,2.3,2.3,0,0,1,1.38-.37,2.55,2.55,0,0,1,1.82.66,2.13,2.13,0,0,1,.69,1.6,3.2,3.2,0,0,1-1.17,2.27l-6.35,6,7.31,10.48a12.83,12.83,0,0,1,1.16,1.91,3.65,3.65,0,0,1,.39,1.59,2,2,0,0,1-.68,1.49,2.58,2.58,0,0,1-1.83.64,3.12,3.12,0,0,1-1.78-.47,4,4,0,0,1-1.16-1.24c-.32-.52-.6-1-.84-1.41l-6.17-9.49-4.28,4.1v5.32a3.4,3.4,0,0,1-.73,2.4,2.6,2.6,0,0,1-3.19.43,2.39,2.39,0,0,1-.94-1,2.82,2.82,0,0,1-.3-1.14c0-.43-.06-1.06-.06-1.88V217a3.53,3.53,0,0,1,.7-2.37,2.37,2.37,0,0,1,1.89-.79,2.51,2.51,0,0,1,1.91.78A3.4,3.4,0,0,1,208.47,217Z" transform="translate(-97.73 -110.28)"/></g></svg>